<svg xmlns="http://www.w3.org/2000/svg" viewBox="0 0 48 48"><path fill="#EA4335" d="M24 9.5c3.54 0 6.71 1.22 9.21 3.6l6.85-6.85C35.9 2.38 30.47 0 24 0 14.62 0 6.51 5.38 2.56 13.22l7.98 6.19C13.46 12.92 18.46 9.5 24 9.5z"/><path fill="#4285F4" d="M46.98 24c0-1.57-.15-3.09-.38-4.55H24v9.02h12.94c-.58 2.96-2.27 5.48-4.9 7.27l6.77 5.26C43.6 39.64 46.98 32.87 46.98 24z"/><path fill="#FBBC04" d="M9.5 24c0-2.37.6-4.62 1.64-6.59L2.56 13.22C1.59 15.17 1 17.31 1 19.5c0 7.83 4.71 14.69 11.4 18.19l6.77-5.26C14.18 30.48 9.5 27.31 9.5 24z"/><path fill="#34A853" d="M24 47c6.48 0 11.93-2.13 15.89-5.77l-6.77-5.26c-2.63 1.79-4.9 3.31-7.27 3.31-5.54 0-10.54-3.42-12.38-8.42l-7.98 6.19C6.51 42.62 14.62 47 24 47z"/><path fill="none" d="M0 0h48v48H0z"/></svg>